<?xml version="1.0" encoding="utf-8" standalone="no"?>
<!DOCTYPE svg PUBLIC "-//W3C//DTD SVG 1.1//EN"
  "http://www.w3.org/Graphics/SVG/1.1/DTD/svg11.dtd">
<svg xmlns:xlink="http://www.w3.org/1999/xlink" width="864pt" height="576pt" viewBox="0 0 864 576" xmlns="http://www.w3.org/2000/svg" version="1.1">
 <metadata>
  <rdf:RDF xmlns:dc="http://purl.org/dc/elements/1.1/" xmlns:cc="http://creativecommons.org/ns#" xmlns:rdf="http://www.w3.org/1999/02/22-rdf-syntax-ns#">
   <cc:Work>
    <dc:type rdf:resource="http://purl.org/dc/dcmitype/StillImage"/>
    <dc:date>2025-05-01T19:37:02.644862</dc:date>
    <dc:format>image/svg+xml</dc:format>
    <dc:creator>
     <cc:Agent>
      <dc:title>Matplotlib v3.10.1, https://matplotlib.org/</dc:title>
     </cc:Agent>
    </dc:creator>
   </cc:Work>
  </rdf:RDF>
 </metadata>
 <defs>
  <style type="text/css">*{stroke-linejoin: round; stroke-linecap: butt}</style>
 </defs>
 <g id="figure_1">
  <g id="patch_1">
   <path d="M 0 576 
L 864 576 
L 864 0 
L 0 0 
z
" style="fill: #ffffff"/>
  </g>
  <g id="axes_1">
   <g id="patch_2">
    <path d="M 170.952332 89.476364 
C 148.249116 89.476364 126.204149 97.179882 108.442224 111.320251 
C 90.6803 125.46062 78.231382 145.217877 73.142414 167.343392 
C 68.053446 189.468906 70.619521 212.67968 80.418709 233.159229 
C 90.217896 253.638778 106.681966 270.199549 127.103778 280.118501 
L 170.952332 189.840115 
z
" style="fill: #1f77b4"/>
   </g>
   <g id="patch_3">
    <path d="M 127.10376 280.118489 
C 145.261645 288.937847 165.664739 292.077163 185.633964 289.124214 
C 205.603187 286.171266 224.224488 277.261225 239.052738 263.564043 
L 170.952332 189.840115 
z
" style="fill: #ff7f0e"/>
   </g>
   <g id="patch_4">
    <path d="M 239.052738 263.564043 
C 253.880988 249.866868 264.23744 232.009543 268.762251 212.336831 
C 273.287056 192.664118 271.773095 172.076501 264.419148 153.277327 
L 170.952332 189.840115 
z
" style="fill: #2ca02c"/>
   </g>
   <g id="patch_5">
    <path d="M 264.419148 153.277327 
C 257.0652 134.478162 244.207888 118.327912 227.53548 106.947232 
C 210.863073 95.566553 191.138703 89.476364 170.952346 89.476364 
L 170.952332 189.840115 
z
" style="fill: #d62728"/>
   </g>
   <g id="patch_6">
    <path d="M 170.952332 89.476364 
C 148.249116 89.476364 126.204149 97.179882 108.442224 111.320251 
C 90.6803 125.46062 78.231382 145.217877 73.142414 167.343392 
C 68.053446 189.468906 70.619521 212.67968 80.418709 233.159229 
C 90.217896 253.638778 106.681966 270.199549 127.103778 280.118501 
L 170.952332 189.840115 
z
" style="fill: #9467bd"/>
   </g>
   <g id="patch_7">
    <path d="M 127.10376 280.118489 
C 145.261645 288.937847 165.664739 292.077163 185.633964 289.124214 
C 205.603187 286.171266 224.224488 277.261225 239.052738 263.564043 
L 170.952332 189.840115 
z
" style="fill: #8c564b"/>
   </g>
   <g id="patch_8">
    <path d="M 239.052738 263.564043 
C 253.880988 249.866868 264.23744 232.009543 268.762251 212.336831 
C 273.287056 192.664118 271.773095 172.076501 264.419148 153.277327 
L 170.952332 189.840115 
z
" style="fill: #e377c2"/>
   </g>
   <g id="patch_9">
    <path d="M 264.419148 153.277327 
C 257.0652 134.478162 244.207888 118.327912 227.53548 106.947232 
C 210.863073 95.566553 191.138703 89.476364 170.952346 89.476364 
L 170.952332 189.840115 
z
" style="fill: #7f7f7f"/>
   </g>
   <g id="matplotlib.axis_1"/>
   <g id="matplotlib.axis_2"/>
   <g id="text_1">
    <!-- Prob. cambio desde Mercedes a: -->
    <g transform="translate(73.4825 73.44) scale(0.12 -0.12)">
     <defs>
      <path id="DejaVuSans-50" d="M 1259 4147 
L 1259 2394 
L 2053 2394 
Q 2494 2394 2734 2622 
Q 2975 2850 2975 3272 
Q 2975 3691 2734 3919 
Q 2494 4147 2053 4147 
L 1259 4147 
z
M 628 4666 
L 2053 4666 
Q 2838 4666 3239 4311 
Q 3641 3956 3641 3272 
Q 3641 2581 3239 2228 
Q 2838 1875 2053 1875 
L 1259 1875 
L 1259 0 
L 628 0 
L 628 4666 
z
" transform="scale(0.015625)"/>
      <path id="DejaVuSans-72" d="M 2631 2963 
Q 2534 3019 2420 3045 
Q 2306 3072 2169 3072 
Q 1681 3072 1420 2755 
Q 1159 2438 1159 1844 
L 1159 0 
L 581 0 
L 581 3500 
L 1159 3500 
L 1159 2956 
Q 1341 3275 1631 3429 
Q 1922 3584 2338 3584 
Q 2397 3584 2469 3576 
Q 2541 3569 2628 3553 
L 2631 2963 
z
" transform="scale(0.015625)"/>
      <path id="DejaVuSans-6f" d="M 1959 3097 
Q 1497 3097 1228 2736 
Q 959 2375 959 1747 
Q 959 1119 1226 758 
Q 1494 397 1959 397 
Q 2419 397 2687 759 
Q 2956 1122 2956 1747 
Q 2956 2369 2687 2733 
Q 2419 3097 1959 3097 
z
M 1959 3584 
Q 2709 3584 3137 3096 
Q 3566 2609 3566 1747 
Q 3566 888 3137 398 
Q 2709 -91 1959 -91 
Q 1206 -91 779 398 
Q 353 888 353 1747 
Q 353 2609 779 3096 
Q 1206 3584 1959 3584 
z
" transform="scale(0.015625)"/>
      <path id="DejaVuSans-62" d="M 3116 1747 
Q 3116 2381 2855 2742 
Q 2594 3103 2138 3103 
Q 1681 3103 1420 2742 
Q 1159 2381 1159 1747 
Q 1159 1113 1420 752 
Q 1681 391 2138 391 
Q 2594 391 2855 752 
Q 3116 1113 3116 1747 
z
M 1159 2969 
Q 1341 3281 1617 3432 
Q 1894 3584 2278 3584 
Q 2916 3584 3314 3078 
Q 3713 2572 3713 1747 
Q 3713 922 3314 415 
Q 2916 -91 2278 -91 
Q 1894 -91 1617 61 
Q 1341 213 1159 525 
L 1159 0 
L 581 0 
L 581 4863 
L 1159 4863 
L 1159 2969 
z
" transform="scale(0.015625)"/>
      <path id="DejaVuSans-2e" d="M 684 794 
L 1344 794 
L 1344 0 
L 684 0 
L 684 794 
z
" transform="scale(0.015625)"/>
      <path id="DejaVuSans-20" transform="scale(0.015625)"/>
      <path id="DejaVuSans-63" d="M 3122 3366 
L 3122 2828 
Q 2878 2963 2633 3030 
Q 2388 3097 2138 3097 
Q 1578 3097 1268 2742 
Q 959 2388 959 1747 
Q 959 1106 1268 751 
Q 1578 397 2138 397 
Q 2388 397 2633 464 
Q 2878 531 3122 666 
L 3122 134 
Q 2881 22 2623 -34 
Q 2366 -91 2075 -91 
Q 1284 -91 818 406 
Q 353 903 353 1747 
Q 353 2603 823 3093 
Q 1294 3584 2113 3584 
Q 2378 3584 2631 3529 
Q 2884 3475 3122 3366 
z
" transform="scale(0.015625)"/>
      <path id="DejaVuSans-61" d="M 2194 1759 
Q 1497 1759 1228 1600 
Q 959 1441 959 1056 
Q 959 750 1161 570 
Q 1363 391 1709 391 
Q 2188 391 2477 730 
Q 2766 1069 2766 1631 
L 2766 1759 
L 2194 1759 
z
M 3341 1997 
L 3341 0 
L 2766 0 
L 2766 531 
Q 2569 213 2275 61 
Q 1981 -91 1556 -91 
Q 1019 -91 701 211 
Q 384 513 384 1019 
Q 384 1609 779 1909 
Q 1175 2209 1959 2209 
L 2766 2209 
L 2766 2266 
Q 2766 2663 2505 2880 
Q 2244 3097 1772 3097 
Q 1472 3097 1187 3025 
Q 903 2953 641 2809 
L 641 3341 
Q 956 3463 1253 3523 
Q 1550 3584 1831 3584 
Q 2591 3584 2966 3190 
Q 3341 2797 3341 1997 
z
" transform="scale(0.015625)"/>
      <path id="DejaVuSans-6d" d="M 3328 2828 
Q 3544 3216 3844 3400 
Q 4144 3584 4550 3584 
Q 5097 3584 5394 3201 
Q 5691 2819 5691 2113 
L 5691 0 
L 5113 0 
L 5113 2094 
Q 5113 2597 4934 2840 
Q 4756 3084 4391 3084 
Q 3944 3084 3684 2787 
Q 3425 2491 3425 1978 
L 3425 0 
L 2847 0 
L 2847 2094 
Q 2847 2600 2669 2842 
Q 2491 3084 2119 3084 
Q 1678 3084 1418 2786 
Q 1159 2488 1159 1978 
L 1159 0 
L 581 0 
L 581 3500 
L 1159 3500 
L 1159 2956 
Q 1356 3278 1631 3431 
Q 1906 3584 2284 3584 
Q 2666 3584 2933 3390 
Q 3200 3197 3328 2828 
z
" transform="scale(0.015625)"/>
      <path id="DejaVuSans-69" d="M 603 3500 
L 1178 3500 
L 1178 0 
L 603 0 
L 603 3500 
z
M 603 4863 
L 1178 4863 
L 1178 4134 
L 603 4134 
L 603 4863 
z
" transform="scale(0.015625)"/>
      <path id="DejaVuSans-64" d="M 2906 2969 
L 2906 4863 
L 3481 4863 
L 3481 0 
L 2906 0 
L 2906 525 
Q 2725 213 2448 61 
Q 2172 -91 1784 -91 
Q 1150 -91 751 415 
Q 353 922 353 1747 
Q 353 2572 751 3078 
Q 1150 3584 1784 3584 
Q 2172 3584 2448 3432 
Q 2725 3281 2906 2969 
z
M 947 1747 
Q 947 1113 1208 752 
Q 1469 391 1925 391 
Q 2381 391 2643 752 
Q 2906 1113 2906 1747 
Q 2906 2381 2643 2742 
Q 2381 3103 1925 3103 
Q 1469 3103 1208 2742 
Q 947 2381 947 1747 
z
" transform="scale(0.015625)"/>
      <path id="DejaVuSans-65" d="M 3597 1894 
L 3597 1613 
L 953 1613 
Q 991 1019 1311 708 
Q 1631 397 2203 397 
Q 2534 397 2845 478 
Q 3156 559 3463 722 
L 3463 178 
Q 3153 47 2828 -22 
Q 2503 -91 2169 -91 
Q 1331 -91 842 396 
Q 353 884 353 1716 
Q 353 2575 817 3079 
Q 1281 3584 2069 3584 
Q 2775 3584 3186 3129 
Q 3597 2675 3597 1894 
z
M 3022 2063 
Q 3016 2534 2758 2815 
Q 2500 3097 2075 3097 
Q 1594 3097 1305 2825 
Q 1016 2553 972 2059 
L 3022 2063 
z
" transform="scale(0.015625)"/>
      <path id="DejaVuSans-73" d="M 2834 3397 
L 2834 2853 
Q 2591 2978 2328 3040 
Q 2066 3103 1784 3103 
Q 1356 3103 1142 2972 
Q 928 2841 928 2578 
Q 928 2378 1081 2264 
Q 1234 2150 1697 2047 
L 1894 2003 
Q 2506 1872 2764 1633 
Q 3022 1394 3022 966 
Q 3022 478 2636 193 
Q 2250 -91 1575 -91 
Q 1294 -91 989 -36 
Q 684 19 347 128 
L 347 722 
Q 666 556 975 473 
Q 1284 391 1588 391 
Q 1994 391 2212 530 
Q 2431 669 2431 922 
Q 2431 1156 2273 1281 
Q 2116 1406 1581 1522 
L 1381 1569 
Q 847 1681 609 1914 
Q 372 2147 372 2553 
Q 372 3047 722 3315 
Q 1072 3584 1716 3584 
Q 2034 3584 2315 3537 
Q 2597 3491 2834 3397 
z
" transform="scale(0.015625)"/>
      <path id="DejaVuSans-4d" d="M 628 4666 
L 1569 4666 
L 2759 1491 
L 3956 4666 
L 4897 4666 
L 4897 0 
L 4281 0 
L 4281 4097 
L 3078 897 
L 2444 897 
L 1241 4097 
L 1241 0 
L 628 0 
L 628 4666 
z
" transform="scale(0.015625)"/>
      <path id="DejaVuSans-3a" d="M 750 794 
L 1409 794 
L 1409 0 
L 750 0 
L 750 794 
z
M 750 3309 
L 1409 3309 
L 1409 2516 
L 750 2516 
L 750 3309 
z
" transform="scale(0.015625)"/>
     </defs>
     <use xlink:href="#DejaVuSans-50"/>
     <use xlink:href="#DejaVuSans-72" transform="translate(58.552734 0)"/>
     <use xlink:href="#DejaVuSans-6f" transform="translate(97.416016 0)"/>
     <use xlink:href="#DejaVuSans-62" transform="translate(158.597656 0)"/>
     <use xlink:href="#DejaVuSans-2e" transform="translate(222.074219 0)"/>
     <use xlink:href="#DejaVuSans-20" transform="translate(253.861328 0)"/>
     <use xlink:href="#DejaVuSans-63" transform="translate(285.648438 0)"/>
     <use xlink:href="#DejaVuSans-61" transform="translate(340.628906 0)"/>
     <use xlink:href="#DejaVuSans-6d" transform="translate(401.908203 0)"/>
     <use xlink:href="#DejaVuSans-62" transform="translate(499.320312 0)"/>
     <use xlink:href="#DejaVuSans-69" transform="translate(562.796875 0)"/>
     <use xlink:href="#DejaVuSans-6f" transform="translate(590.580078 0)"/>
     <use xlink:href="#DejaVuSans-20" transform="translate(651.761719 0)"/>
     <use xlink:href="#DejaVuSans-64" transform="translate(683.548828 0)"/>
     <use xlink:href="#DejaVuSans-65" transform="translate(747.025391 0)"/>
     <use xlink:href="#DejaVuSans-73" transform="translate(808.548828 0)"/>
     <use xlink:href="#DejaVuSans-64" transform="translate(860.648438 0)"/>
     <use xlink:href="#DejaVuSans-65" transform="translate(924.125 0)"/>
     <use xlink:href="#DejaVuSans-20" transform="translate(985.648438 0)"/>
     <use xlink:href="#DejaVuSans-4d" transform="translate(1017.435547 0)"/>
     <use xlink:href="#DejaVuSans-65" transform="translate(1103.714844 0)"/>
     <use xlink:href="#DejaVuSans-72" transform="translate(1165.238281 0)"/>
     <use xlink:href="#DejaVuSans-63" transform="translate(1204.101562 0)"/>
     <use xlink:href="#DejaVuSans-65" transform="translate(1259.082031 0)"/>
     <use xlink:href="#DejaVuSans-64" transform="translate(1320.605469 0)"/>
     <use xlink:href="#DejaVuSans-65" transform="translate(1384.082031 0)"/>
     <use xlink:href="#DejaVuSans-73" transform="translate(1445.605469 0)"/>
     <use xlink:href="#DejaVuSans-20" transform="translate(1497.705078 0)"/>
     <use xlink:href="#DejaVuSans-61" transform="translate(1529.492188 0)"/>
     <use xlink:href="#DejaVuSans-3a" transform="translate(1590.771484 0)"/>
    </g>
   </g>
   <g id="legend_1">
    <g id="patch_10">
     <path d="M 338.105 228.035312 
L 424.744063 228.035312 
Q 426.744063 228.035312 426.744063 226.035312 
L 426.744063 153.644687 
Q 426.744063 151.644687 424.744063 151.644687 
L 338.105 151.644687 
Q 336.105 151.644687 336.105 153.644687 
L 336.105 226.035312 
Q 336.105 228.035312 338.105 228.035312 
z
" style="fill: #ffffff; opacity: 0.8; stroke: #cccccc; stroke-linejoin: miter"/>
    </g>
    <g id="text_2">
     <!-- Empresas -->
     <g transform="translate(356.927656 163.243125) scale(0.1 -0.1)">
      <defs>
       <path id="DejaVuSans-45" d="M 628 4666 
L 3578 4666 
L 3578 4134 
L 1259 4134 
L 1259 2753 
L 3481 2753 
L 3481 2222 
L 1259 2222 
L 1259 531 
L 3634 531 
L 3634 0 
L 628 0 
L 628 4666 
z
" transform="scale(0.015625)"/>
       <path id="DejaVuSans-70" d="M 1159 525 
L 1159 -1331 
L 581 -1331 
L 581 3500 
L 1159 3500 
L 1159 2969 
Q 1341 3281 1617 3432 
Q 1894 3584 2278 3584 
Q 2916 3584 3314 3078 
Q 3713 2572 3713 1747 
Q 3713 922 3314 415 
Q 2916 -91 2278 -91 
Q 1894 -91 1617 61 
Q 1341 213 1159 525 
z
M 3116 1747 
Q 3116 2381 2855 2742 
Q 2594 3103 2138 3103 
Q 1681 3103 1420 2742 
Q 1159 2381 1159 1747 
Q 1159 1113 1420 752 
Q 1681 391 2138 391 
Q 2594 391 2855 752 
Q 3116 1113 3116 1747 
z
" transform="scale(0.015625)"/>
      </defs>
      <use xlink:href="#DejaVuSans-45"/>
      <use xlink:href="#DejaVuSans-6d" transform="translate(63.183594 0)"/>
      <use xlink:href="#DejaVuSans-70" transform="translate(160.595703 0)"/>
      <use xlink:href="#DejaVuSans-72" transform="translate(224.072266 0)"/>
      <use xlink:href="#DejaVuSans-65" transform="translate(262.935547 0)"/>
      <use xlink:href="#DejaVuSans-73" transform="translate(324.458984 0)"/>
      <use xlink:href="#DejaVuSans-61" transform="translate(376.558594 0)"/>
      <use xlink:href="#DejaVuSans-73" transform="translate(437.837891 0)"/>
     </g>
    </g>
    <g id="patch_11">
     <path d="M 340.105 177.92125 
L 360.105 177.92125 
L 360.105 170.92125 
L 340.105 170.92125 
z
" style="fill: #9467bd"/>
    </g>
    <g id="text_3">
     <!-- ME: 42.8% -->
     <g transform="translate(368.105 177.92125) scale(0.1 -0.1)">
      <defs>
       <path id="DejaVuSans-34" d="M 2419 4116 
L 825 1625 
L 2419 1625 
L 2419 4116 
z
M 2253 4666 
L 3047 4666 
L 3047 1625 
L 3713 1625 
L 3713 1100 
L 3047 1100 
L 3047 0 
L 2419 0 
L 2419 1100 
L 313 1100 
L 313 1709 
L 2253 4666 
z
" transform="scale(0.015625)"/>
       <path id="DejaVuSans-32" d="M 1228 531 
L 3431 531 
L 3431 0 
L 469 0 
L 469 531 
Q 828 903 1448 1529 
Q 2069 2156 2228 2338 
Q 2531 2678 2651 2914 
Q 2772 3150 2772 3378 
Q 2772 3750 2511 3984 
Q 2250 4219 1831 4219 
Q 1534 4219 1204 4116 
Q 875 4013 500 3803 
L 500 4441 
Q 881 4594 1212 4672 
Q 1544 4750 1819 4750 
Q 2544 4750 2975 4387 
Q 3406 4025 3406 3419 
Q 3406 3131 3298 2873 
Q 3191 2616 2906 2266 
Q 2828 2175 2409 1742 
Q 1991 1309 1228 531 
z
" transform="scale(0.015625)"/>
       <path id="DejaVuSans-38" d="M 2034 2216 
Q 1584 2216 1326 1975 
Q 1069 1734 1069 1313 
Q 1069 891 1326 650 
Q 1584 409 2034 409 
Q 2484 409 2743 651 
Q 3003 894 3003 1313 
Q 3003 1734 2745 1975 
Q 2488 2216 2034 2216 
z
M 1403 2484 
Q 997 2584 770 2862 
Q 544 3141 544 3541 
Q 544 4100 942 4425 
Q 1341 4750 2034 4750 
Q 2731 4750 3128 4425 
Q 3525 4100 3525 3541 
Q 3525 3141 3298 2862 
Q 3072 2584 2669 2484 
Q 3125 2378 3379 2068 
Q 3634 1759 3634 1313 
Q 3634 634 3220 271 
Q 2806 -91 2034 -91 
Q 1263 -91 848 271 
Q 434 634 434 1313 
Q 434 1759 690 2068 
Q 947 2378 1403 2484 
z
M 1172 3481 
Q 1172 3119 1398 2916 
Q 1625 2713 2034 2713 
Q 2441 2713 2670 2916 
Q 2900 3119 2900 3481 
Q 2900 3844 2670 4047 
Q 2441 4250 2034 4250 
Q 1625 4250 1398 4047 
Q 1172 3844 1172 3481 
z
" transform="scale(0.015625)"/>
       <path id="DejaVuSans-25" d="M 4653 2053 
Q 4381 2053 4226 1822 
Q 4072 1591 4072 1178 
Q 4072 772 4226 539 
Q 4381 306 4653 306 
Q 4919 306 5073 539 
Q 5228 772 5228 1178 
Q 5228 1588 5073 1820 
Q 4919 2053 4653 2053 
z
M 4653 2450 
Q 5147 2450 5437 2106 
Q 5728 1763 5728 1178 
Q 5728 594 5436 251 
Q 5144 -91 4653 -91 
Q 4153 -91 3862 251 
Q 3572 594 3572 1178 
Q 3572 1766 3864 2108 
Q 4156 2450 4653 2450 
z
M 1428 4353 
Q 1159 4353 1004 4120 
Q 850 3888 850 3481 
Q 850 3069 1003 2837 
Q 1156 2606 1428 2606 
Q 1700 2606 1854 2837 
Q 2009 3069 2009 3481 
Q 2009 3884 1853 4118 
Q 1697 4353 1428 4353 
z
M 4250 4750 
L 4750 4750 
L 1831 -91 
L 1331 -91 
L 4250 4750 
z
M 1428 4750 
Q 1922 4750 2215 4408 
Q 2509 4066 2509 3481 
Q 2509 2891 2217 2550 
Q 1925 2209 1428 2209 
Q 931 2209 642 2551 
Q 353 2894 353 3481 
Q 353 4063 643 4406 
Q 934 4750 1428 4750 
z
" transform="scale(0.015625)"/>
      </defs>
      <use xlink:href="#DejaVuSans-4d"/>
      <use xlink:href="#DejaVuSans-45" transform="translate(86.279297 0)"/>
      <use xlink:href="#DejaVuSans-3a" transform="translate(149.462891 0)"/>
      <use xlink:href="#DejaVuSans-20" transform="translate(183.154297 0)"/>
      <use xlink:href="#DejaVuSans-34" transform="translate(214.941406 0)"/>
      <use xlink:href="#DejaVuSans-32" transform="translate(278.564453 0)"/>
      <use xlink:href="#DejaVuSans-2e" transform="translate(342.1875 0)"/>
      <use xlink:href="#DejaVuSans-38" transform="translate(373.974609 0)"/>
      <use xlink:href="#DejaVuSans-25" transform="translate(437.597656 0)"/>
     </g>
    </g>
    <g id="patch_12">
     <path d="M 340.105 192.599375 
L 360.105 192.599375 
L 360.105 185.599375 
L 340.105 185.599375 
z
" style="fill: #8c564b"/>
    </g>
    <g id="text_4">
     <!-- PE: 19.1% -->
     <g transform="translate(368.105 192.599375) scale(0.1 -0.1)">
      <defs>
       <path id="DejaVuSans-31" d="M 794 531 
L 1825 531 
L 1825 4091 
L 703 3866 
L 703 4441 
L 1819 4666 
L 2450 4666 
L 2450 531 
L 3481 531 
L 3481 0 
L 794 0 
L 794 531 
z
" transform="scale(0.015625)"/>
       <path id="DejaVuSans-39" d="M 703 97 
L 703 672 
Q 941 559 1184 500 
Q 1428 441 1663 441 
Q 2288 441 2617 861 
Q 2947 1281 2994 2138 
Q 2813 1869 2534 1725 
Q 2256 1581 1919 1581 
Q 1219 1581 811 2004 
Q 403 2428 403 3163 
Q 403 3881 828 4315 
Q 1253 4750 1959 4750 
Q 2769 4750 3195 4129 
Q 3622 3509 3622 2328 
Q 3622 1225 3098 567 
Q 2575 -91 1691 -91 
Q 1453 -91 1209 -44 
Q 966 3 703 97 
z
M 1959 2075 
Q 2384 2075 2632 2365 
Q 2881 2656 2881 3163 
Q 2881 3666 2632 3958 
Q 2384 4250 1959 4250 
Q 1534 4250 1286 3958 
Q 1038 3666 1038 3163 
Q 1038 2656 1286 2365 
Q 1534 2075 1959 2075 
z
" transform="scale(0.015625)"/>
      </defs>
      <use xlink:href="#DejaVuSans-50"/>
      <use xlink:href="#DejaVuSans-45" transform="translate(60.302734 0)"/>
      <use xlink:href="#DejaVuSans-3a" transform="translate(123.486328 0)"/>
      <use xlink:href="#DejaVuSans-20" transform="translate(157.177734 0)"/>
      <use xlink:href="#DejaVuSans-31" transform="translate(188.964844 0)"/>
      <use xlink:href="#DejaVuSans-39" transform="translate(252.587891 0)"/>
      <use xlink:href="#DejaVuSans-2e" transform="translate(316.210938 0)"/>
      <use xlink:href="#DejaVuSans-31" transform="translate(347.998047 0)"/>
      <use xlink:href="#DejaVuSans-25" transform="translate(411.621094 0)"/>
     </g>
    </g>
    <g id="patch_13">
     <path d="M 340.105 207.2775 
L 360.105 207.2775 
L 360.105 200.2775 
L 340.105 200.2775 
z
" style="fill: #e377c2"/>
    </g>
    <g id="text_5">
     <!-- PL: 19.1% -->
     <g transform="translate(368.105 207.2775) scale(0.1 -0.1)">
      <defs>
       <path id="DejaVuSans-4c" d="M 628 4666 
L 1259 4666 
L 1259 531 
L 3531 531 
L 3531 0 
L 628 0 
L 628 4666 
z
" transform="scale(0.015625)"/>
      </defs>
      <use xlink:href="#DejaVuSans-50"/>
      <use xlink:href="#DejaVuSans-4c" transform="translate(60.302734 0)"/>
      <use xlink:href="#DejaVuSans-3a" transform="translate(116.015625 0)"/>
      <use xlink:href="#DejaVuSans-20" transform="translate(149.707031 0)"/>
      <use xlink:href="#DejaVuSans-31" transform="translate(181.494141 0)"/>
      <use xlink:href="#DejaVuSans-39" transform="translate(245.117188 0)"/>
      <use xlink:href="#DejaVuSans-2e" transform="translate(308.740234 0)"/>
      <use xlink:href="#DejaVuSans-31" transform="translate(340.527344 0)"/>
      <use xlink:href="#DejaVuSans-25" transform="translate(404.150391 0)"/>
     </g>
    </g>
    <g id="patch_14">
     <path d="M 340.105 221.955625 
L 360.105 221.955625 
L 360.105 214.955625 
L 340.105 214.955625 
z
" style="fill: #7f7f7f"/>
    </g>
    <g id="text_6">
     <!-- MO: 19.1% -->
     <g transform="translate(368.105 221.955625) scale(0.1 -0.1)">
      <defs>
       <path id="DejaVuSans-4f" d="M 2522 4238 
Q 1834 4238 1429 3725 
Q 1025 3213 1025 2328 
Q 1025 1447 1429 934 
Q 1834 422 2522 422 
Q 3209 422 3611 934 
Q 4013 1447 4013 2328 
Q 4013 3213 3611 3725 
Q 3209 4238 2522 4238 
z
M 2522 4750 
Q 3503 4750 4090 4092 
Q 4678 3434 4678 2328 
Q 4678 1225 4090 567 
Q 3503 -91 2522 -91 
Q 1538 -91 948 565 
Q 359 1222 359 2328 
Q 359 3434 948 4092 
Q 1538 4750 2522 4750 
z
" transform="scale(0.015625)"/>
      </defs>
      <use xlink:href="#DejaVuSans-4d"/>
      <use xlink:href="#DejaVuSans-4f" transform="translate(86.279297 0)"/>
      <use xlink:href="#DejaVuSans-3a" transform="translate(163.240234 0)"/>
      <use xlink:href="#DejaVuSans-20" transform="translate(196.931641 0)"/>
      <use xlink:href="#DejaVuSans-31" transform="translate(228.71875 0)"/>
      <use xlink:href="#DejaVuSans-39" transform="translate(292.341797 0)"/>
      <use xlink:href="#DejaVuSans-2e" transform="translate(355.964844 0)"/>
      <use xlink:href="#DejaVuSans-31" transform="translate(387.751953 0)"/>
      <use xlink:href="#DejaVuSans-25" transform="translate(451.375 0)"/>
     </g>
    </g>
   </g>
  </g>
  <g id="axes_2">
   <g id="patch_15">
    <path d="M 597.597318 89.476364 
C 577.024614 89.476364 556.94105 95.801903 540.081629 107.591563 
C 523.222209 119.381223 510.388636 136.074377 503.328602 155.397733 
L 597.597318 189.840007 
z
" style="fill: #1f77b4"/>
   </g>
   <g id="patch_16">
    <path d="M 503.328607 155.397726 
C 495.737206 176.175424 495.224082 198.891234 501.869539 219.990522 
C 508.51499 241.089808 521.953327 259.41148 540.08165 272.088464 
C 558.209973 284.765449 580.030673 291.100146 602.129186 290.101284 
C 624.227699 289.102416 645.387923 280.82496 662.298641 266.564186 
L 597.597318 189.840007 
z
" style="fill: #ff7f0e"/>
   </g>
   <g id="patch_17">
    <path d="M 662.298641 266.564186 
C 678.025691 253.301604 689.300917 235.518744 694.588877 215.637253 
C 699.876837 195.755764 698.92606 174.721053 691.866022 155.397699 
L 597.597318 189.840007 
z
" style="fill: #2ca02c"/>
   </g>
   <g id="patch_18">
    <path d="M 691.866022 155.397699 
C 684.805985 136.074352 671.972412 119.38121 655.112997 107.591556 
C 638.253581 95.801902 618.170028 89.476364 597.597332 89.476364 
L 597.597318 189.840007 
z
" style="fill: #d62728"/>
   </g>
   <g id="patch_19">
    <path d="M 597.597318 89.476364 
C 577.024614 89.476364 556.94105 95.801903 540.081629 107.591563 
C 523.222209 119.381223 510.388636 136.074377 503.328602 155.397733 
L 597.597318 189.840007 
z
" style="fill: #9467bd"/>
   </g>
   <g id="patch_20">
    <path d="M 503.328607 155.397726 
C 495.737206 176.175424 495.224082 198.891234 501.869539 219.990522 
C 508.51499 241.089808 521.953327 259.41148 540.08165 272.088464 
C 558.209973 284.765449 580.030673 291.100146 602.129186 290.101284 
C 624.227699 289.102416 645.387923 280.82496 662.298641 266.564186 
L 597.597318 189.840007 
z
" style="fill: #8c564b"/>
   </g>
   <g id="patch_21">
    <path d="M 662.298641 266.564186 
C 678.025691 253.301604 689.300917 235.518744 694.588877 215.637253 
C 699.876837 195.755764 698.92606 174.721053 691.866022 155.397699 
L 597.597318 189.840007 
z
" style="fill: #e377c2"/>
   </g>
   <g id="patch_22">
    <path d="M 691.866022 155.397699 
C 684.805985 136.074352 671.972412 119.38121 655.112997 107.591556 
C 638.253581 95.801902 618.170028 89.476364 597.597332 89.476364 
L 597.597318 189.840007 
z
" style="fill: #7f7f7f"/>
   </g>
   <g id="matplotlib.axis_3"/>
   <g id="matplotlib.axis_4"/>
   <g id="text_7">
    <!-- Prob. cambio desde Peugeot a: -->
    <g transform="translate(504.52625 73.44) scale(0.12 -0.12)">
     <defs>
      <path id="DejaVuSans-75" d="M 544 1381 
L 544 3500 
L 1119 3500 
L 1119 1403 
Q 1119 906 1312 657 
Q 1506 409 1894 409 
Q 2359 409 2629 706 
Q 2900 1003 2900 1516 
L 2900 3500 
L 3475 3500 
L 3475 0 
L 2900 0 
L 2900 538 
Q 2691 219 2414 64 
Q 2138 -91 1772 -91 
Q 1169 -91 856 284 
Q 544 659 544 1381 
z
M 1991 3584 
L 1991 3584 
z
" transform="scale(0.015625)"/>
      <path id="DejaVuSans-67" d="M 2906 1791 
Q 2906 2416 2648 2759 
Q 2391 3103 1925 3103 
Q 1463 3103 1205 2759 
Q 947 2416 947 1791 
Q 947 1169 1205 825 
Q 1463 481 1925 481 
Q 2391 481 2648 825 
Q 2906 1169 2906 1791 
z
M 3481 434 
Q 3481 -459 3084 -895 
Q 2688 -1331 1869 -1331 
Q 1566 -1331 1297 -1286 
Q 1028 -1241 775 -1147 
L 775 -588 
Q 1028 -725 1275 -790 
Q 1522 -856 1778 -856 
Q 2344 -856 2625 -561 
Q 2906 -266 2906 331 
L 2906 616 
Q 2728 306 2450 153 
Q 2172 0 1784 0 
Q 1141 0 747 490 
Q 353 981 353 1791 
Q 353 2603 747 3093 
Q 1141 3584 1784 3584 
Q 2172 3584 2450 3431 
Q 2728 3278 2906 2969 
L 2906 3500 
L 3481 3500 
L 3481 434 
z
" transform="scale(0.015625)"/>
      <path id="DejaVuSans-74" d="M 1172 4494 
L 1172 3500 
L 2356 3500 
L 2356 3053 
L 1172 3053 
L 1172 1153 
Q 1172 725 1289 603 
Q 1406 481 1766 481 
L 2356 481 
L 2356 0 
L 1766 0 
Q 1100 0 847 248 
Q 594 497 594 1153 
L 594 3053 
L 172 3053 
L 172 3500 
L 594 3500 
L 594 4494 
L 1172 4494 
z
" transform="scale(0.015625)"/>
     </defs>
     <use xlink:href="#DejaVuSans-50"/>
     <use xlink:href="#DejaVuSans-72" transform="translate(58.552734 0)"/>
     <use xlink:href="#DejaVuSans-6f" transform="translate(97.416016 0)"/>
     <use xlink:href="#DejaVuSans-62" transform="translate(158.597656 0)"/>
     <use xlink:href="#DejaVuSans-2e" transform="translate(222.074219 0)"/>
     <use xlink:href="#DejaVuSans-20" transform="translate(253.861328 0)"/>
     <use xlink:href="#DejaVuSans-63" transform="translate(285.648438 0)"/>
     <use xlink:href="#DejaVuSans-61" transform="translate(340.628906 0)"/>
     <use xlink:href="#DejaVuSans-6d" transform="translate(401.908203 0)"/>
     <use xlink:href="#DejaVuSans-62" transform="translate(499.320312 0)"/>
     <use xlink:href="#DejaVuSans-69" transform="translate(562.796875 0)"/>
     <use xlink:href="#DejaVuSans-6f" transform="translate(590.580078 0)"/>
     <use xlink:href="#DejaVuSans-20" transform="translate(651.761719 0)"/>
     <use xlink:href="#DejaVuSans-64" transform="translate(683.548828 0)"/>
     <use xlink:href="#DejaVuSans-65" transform="translate(747.025391 0)"/>
     <use xlink:href="#DejaVuSans-73" transform="translate(808.548828 0)"/>
     <use xlink:href="#DejaVuSans-64" transform="translate(860.648438 0)"/>
     <use xlink:href="#DejaVuSans-65" transform="translate(924.125 0)"/>
     <use xlink:href="#DejaVuSans-20" transform="translate(985.648438 0)"/>
     <use xlink:href="#DejaVuSans-50" transform="translate(1017.435547 0)"/>
     <use xlink:href="#DejaVuSans-65" transform="translate(1074.113281 0)"/>
     <use xlink:href="#DejaVuSans-75" transform="translate(1135.636719 0)"/>
     <use xlink:href="#DejaVuSans-67" transform="translate(1199.015625 0)"/>
     <use xlink:href="#DejaVuSans-65" transform="translate(1262.492188 0)"/>
     <use xlink:href="#DejaVuSans-6f" transform="translate(1324.015625 0)"/>
     <use xlink:href="#DejaVuSans-74" transform="translate(1385.197266 0)"/>
     <use xlink:href="#DejaVuSans-20" transform="translate(1424.40625 0)"/>
     <use xlink:href="#DejaVuSans-61" transform="translate(1456.193359 0)"/>
     <use xlink:href="#DejaVuSans-3a" transform="translate(1517.472656 0)"/>
    </g>
   </g>
   <g id="legend_2">
    <g id="patch_23">
     <path d="M 764.75 228.035312 
L 851.389063 228.035312 
Q 853.389063 228.035312 853.389063 226.035312 
L 853.389063 153.644687 
Q 853.389063 151.644687 851.389063 151.644687 
L 764.75 151.644687 
Q 762.75 151.644687 762.75 153.644687 
L 762.75 226.035312 
Q 762.75 228.035312 764.75 228.035312 
z
" style="fill: #ffffff; opacity: 0.8; stroke: #cccccc; stroke-linejoin: miter"/>
    </g>
    <g id="text_8">
     <!-- Empresas -->
     <g transform="translate(783.572656 163.243125) scale(0.1 -0.1)">
      <use xlink:href="#DejaVuSans-45"/>
      <use xlink:href="#DejaVuSans-6d" transform="translate(63.183594 0)"/>
      <use xlink:href="#DejaVuSans-70" transform="translate(160.595703 0)"/>
      <use xlink:href="#DejaVuSans-72" transform="translate(224.072266 0)"/>
      <use xlink:href="#DejaVuSans-65" transform="translate(262.935547 0)"/>
      <use xlink:href="#DejaVuSans-73" transform="translate(324.458984 0)"/>
      <use xlink:href="#DejaVuSans-61" transform="translate(376.558594 0)"/>
      <use xlink:href="#DejaVuSans-73" transform="translate(437.837891 0)"/>
     </g>
    </g>
    <g id="patch_24">
     <path d="M 766.75 177.92125 
L 786.75 177.92125 
L 786.75 170.92125 
L 766.75 170.92125 
z
" style="fill: #9467bd"/>
    </g>
    <g id="text_9">
     <!-- ME: 19.4% -->
     <g transform="translate(794.75 177.92125) scale(0.1 -0.1)">
      <use xlink:href="#DejaVuSans-4d"/>
      <use xlink:href="#DejaVuSans-45" transform="translate(86.279297 0)"/>
      <use xlink:href="#DejaVuSans-3a" transform="translate(149.462891 0)"/>
      <use xlink:href="#DejaVuSans-20" transform="translate(183.154297 0)"/>
      <use xlink:href="#DejaVuSans-31" transform="translate(214.941406 0)"/>
      <use xlink:href="#DejaVuSans-39" transform="translate(278.564453 0)"/>
      <use xlink:href="#DejaVuSans-2e" transform="translate(342.1875 0)"/>
      <use xlink:href="#DejaVuSans-34" transform="translate(373.974609 0)"/>
      <use xlink:href="#DejaVuSans-25" transform="translate(437.597656 0)"/>
     </g>
    </g>
    <g id="patch_25">
     <path d="M 766.75 192.599375 
L 786.75 192.599375 
L 786.75 185.599375 
L 766.75 185.599375 
z
" style="fill: #8c564b"/>
    </g>
    <g id="text_10">
     <!-- PE: 41.7% -->
     <g transform="translate(794.75 192.599375) scale(0.1 -0.1)">
      <defs>
       <path id="DejaVuSans-37" d="M 525 4666 
L 3525 4666 
L 3525 4397 
L 1831 0 
L 1172 0 
L 2766 4134 
L 525 4134 
L 525 4666 
z
" transform="scale(0.015625)"/>
      </defs>
      <use xlink:href="#DejaVuSans-50"/>
      <use xlink:href="#DejaVuSans-45" transform="translate(60.302734 0)"/>
      <use xlink:href="#DejaVuSans-3a" transform="translate(123.486328 0)"/>
      <use xlink:href="#DejaVuSans-20" transform="translate(157.177734 0)"/>
      <use xlink:href="#DejaVuSans-34" transform="translate(188.964844 0)"/>
      <use xlink:href="#DejaVuSans-31" transform="translate(252.587891 0)"/>
      <use xlink:href="#DejaVuSans-2e" transform="translate(316.210938 0)"/>
      <use xlink:href="#DejaVuSans-37" transform="translate(347.998047 0)"/>
      <use xlink:href="#DejaVuSans-25" transform="translate(411.621094 0)"/>
     </g>
    </g>
    <g id="patch_26">
     <path d="M 766.75 207.2775 
L 786.75 207.2775 
L 786.75 200.2775 
L 766.75 200.2775 
z
" style="fill: #e377c2"/>
    </g>
    <g id="text_11">
     <!-- PL: 19.4% -->
     <g transform="translate(794.75 207.2775) scale(0.1 -0.1)">
      <use xlink:href="#DejaVuSans-50"/>
      <use xlink:href="#DejaVuSans-4c" transform="translate(60.302734 0)"/>
      <use xlink:href="#DejaVuSans-3a" transform="translate(116.015625 0)"/>
      <use xlink:href="#DejaVuSans-20" transform="translate(149.707031 0)"/>
      <use xlink:href="#DejaVuSans-31" transform="translate(181.494141 0)"/>
      <use xlink:href="#DejaVuSans-39" transform="translate(245.117188 0)"/>
      <use xlink:href="#DejaVuSans-2e" transform="translate(308.740234 0)"/>
      <use xlink:href="#DejaVuSans-34" transform="translate(340.527344 0)"/>
      <use xlink:href="#DejaVuSans-25" transform="translate(404.150391 0)"/>
     </g>
    </g>
    <g id="patch_27">
     <path d="M 766.75 221.955625 
L 786.75 221.955625 
L 786.75 214.955625 
L 766.75 214.955625 
z
" style="fill: #7f7f7f"/>
    </g>
    <g id="text_12">
     <!-- MO: 19.4% -->
     <g transform="translate(794.75 221.955625) scale(0.1 -0.1)">
      <use xlink:href="#DejaVuSans-4d"/>
      <use xlink:href="#DejaVuSans-4f" transform="translate(86.279297 0)"/>
      <use xlink:href="#DejaVuSans-3a" transform="translate(163.240234 0)"/>
      <use xlink:href="#DejaVuSans-20" transform="translate(196.931641 0)"/>
      <use xlink:href="#DejaVuSans-31" transform="translate(228.71875 0)"/>
      <use xlink:href="#DejaVuSans-39" transform="translate(292.341797 0)"/>
      <use xlink:href="#DejaVuSans-2e" transform="translate(355.964844 0)"/>
      <use xlink:href="#DejaVuSans-34" transform="translate(387.751953 0)"/>
      <use xlink:href="#DejaVuSans-25" transform="translate(451.375 0)"/>
     </g>
    </g>
   </g>
  </g>
  <g id="axes_3">
   <g id="patch_28">
    <path d="M 170.952613 337.156364 
C 150.1491 337.156364 129.851445 343.624635 112.88365 355.661249 
C 95.915855 367.697863 83.103098 384.717458 76.22801 404.352104 
L 170.952613 437.520002 
z
" style="fill: #1f77b4"/>
   </g>
   <g id="patch_29">
    <path d="M 76.228014 404.352092 
C 69.352921 423.986741 68.74985 445.28157 74.502705 465.273843 
C 80.255561 485.266116 92.084571 502.98356 108.343965 515.961171 
L 170.952613 437.520002 
z
" style="fill: #ff7f0e"/>
   </g>
   <g id="patch_30">
    <path d="M 108.343965 515.961171 
C 125.361789 529.544126 146.346249 537.227023 168.11143 537.843417 
C 189.876612 538.459816 211.262294 531.976829 229.021566 519.378761 
C 246.780837 506.780693 259.967057 488.73907 266.578194 467.993084 
C 273.189331 447.247099 272.872996 424.902654 265.677224 404.352134 
L 170.952613 437.520002 
z
" style="fill: #2ca02c"/>
   </g>
   <g id="patch_31">
    <path d="M 265.677224 404.352134 
C 258.802143 384.71748 245.98937 367.697863 229.021572 355.661249 
C 212.053773 343.624635 191.756143 337.156364 170.952627 337.156364 
L 170.952613 437.520002 
z
" style="fill: #d62728"/>
   </g>
   <g id="patch_32">
    <path d="M 170.952613 337.156364 
C 150.1491 337.156364 129.851445 343.624635 112.88365 355.661249 
C 95.915855 367.697863 83.103098 384.717458 76.22801 404.352104 
L 170.952613 437.520002 
z
" style="fill: #9467bd"/>
   </g>
   <g id="patch_33">
    <path d="M 76.228014 404.352092 
C 69.352921 423.986741 68.74985 445.28157 74.502705 465.273843 
C 80.255561 485.266116 92.084571 502.98356 108.343965 515.961171 
L 170.952613 437.520002 
z
" style="fill: #8c564b"/>
   </g>
   <g id="patch_34">
    <path d="M 108.343965 515.961171 
C 125.361789 529.544126 146.346249 537.227023 168.11143 537.843417 
C 189.876612 538.459816 211.262294 531.976829 229.021566 519.378761 
C 246.780837 506.780693 259.967057 488.73907 266.578194 467.993084 
C 273.189331 447.247099 272.872996 424.902654 265.677224 404.352134 
L 170.952613 437.520002 
z
" style="fill: #e377c2"/>
   </g>
   <g id="patch_35">
    <path d="M 265.677224 404.352134 
C 258.802143 384.71748 245.98937 367.697863 229.021572 355.661249 
C 212.053773 343.624635 191.756143 337.156364 170.952627 337.156364 
L 170.952613 437.520002 
z
" style="fill: #7f7f7f"/>
   </g>
   <g id="matplotlib.axis_5"/>
   <g id="matplotlib.axis_6"/>
   <g id="text_13">
    <!-- Prob. cambio desde Penhard-Levassor a: -->
    <g transform="translate(49.04375 321.12) scale(0.12 -0.12)">
     <defs>
      <path id="DejaVuSans-6e" d="M 3513 2113 
L 3513 0 
L 2938 0 
L 2938 2094 
Q 2938 2591 2744 2837 
Q 2550 3084 2163 3084 
Q 1697 3084 1428 2787 
Q 1159 2491 1159 1978 
L 1159 0 
L 581 0 
L 581 3500 
L 1159 3500 
L 1159 2956 
Q 1366 3272 1645 3428 
Q 1925 3584 2291 3584 
Q 2894 3584 3203 3211 
Q 3513 2838 3513 2113 
z
" transform="scale(0.015625)"/>
      <path id="DejaVuSans-68" d="M 3513 2113 
L 3513 0 
L 2938 0 
L 2938 2094 
Q 2938 2591 2744 2837 
Q 2550 3084 2163 3084 
Q 1697 3084 1428 2787 
Q 1159 2491 1159 1978 
L 1159 0 
L 581 0 
L 581 4863 
L 1159 4863 
L 1159 2956 
Q 1366 3272 1645 3428 
Q 1925 3584 2291 3584 
Q 2894 3584 3203 3211 
Q 3513 2838 3513 2113 
z
" transform="scale(0.015625)"/>
      <path id="DejaVuSans-2d" d="M 313 2009 
L 1997 2009 
L 1997 1497 
L 313 1497 
L 313 2009 
z
" transform="scale(0.015625)"/>
      <path id="DejaVuSans-76" d="M 191 3500 
L 800 3500 
L 1894 563 
L 2988 3500 
L 3597 3500 
L 2284 0 
L 1503 0 
L 191 3500 
z
" transform="scale(0.015625)"/>
     </defs>
     <use xlink:href="#DejaVuSans-50"/>
     <use xlink:href="#DejaVuSans-72" transform="translate(58.552734 0)"/>
     <use xlink:href="#DejaVuSans-6f" transform="translate(97.416016 0)"/>
     <use xlink:href="#DejaVuSans-62" transform="translate(158.597656 0)"/>
     <use xlink:href="#DejaVuSans-2e" transform="translate(222.074219 0)"/>
     <use xlink:href="#DejaVuSans-20" transform="translate(253.861328 0)"/>
     <use xlink:href="#DejaVuSans-63" transform="translate(285.648438 0)"/>
     <use xlink:href="#DejaVuSans-61" transform="translate(340.628906 0)"/>
     <use xlink:href="#DejaVuSans-6d" transform="translate(401.908203 0)"/>
     <use xlink:href="#DejaVuSans-62" transform="translate(499.320312 0)"/>
     <use xlink:href="#DejaVuSans-69" transform="translate(562.796875 0)"/>
     <use xlink:href="#DejaVuSans-6f" transform="translate(590.580078 0)"/>
     <use xlink:href="#DejaVuSans-20" transform="translate(651.761719 0)"/>
     <use xlink:href="#DejaVuSans-64" transform="translate(683.548828 0)"/>
     <use xlink:href="#DejaVuSans-65" transform="translate(747.025391 0)"/>
     <use xlink:href="#DejaVuSans-73" transform="translate(808.548828 0)"/>
     <use xlink:href="#DejaVuSans-64" transform="translate(860.648438 0)"/>
     <use xlink:href="#DejaVuSans-65" transform="translate(924.125 0)"/>
     <use xlink:href="#DejaVuSans-20" transform="translate(985.648438 0)"/>
     <use xlink:href="#DejaVuSans-50" transform="translate(1017.435547 0)"/>
     <use xlink:href="#DejaVuSans-65" transform="translate(1074.113281 0)"/>
     <use xlink:href="#DejaVuSans-6e" transform="translate(1135.636719 0)"/>
     <use xlink:href="#DejaVuSans-68" transform="translate(1199.015625 0)"/>
     <use xlink:href="#DejaVuSans-61" transform="translate(1262.394531 0)"/>
     <use xlink:href="#DejaVuSans-72" transform="translate(1323.673828 0)"/>
     <use xlink:href="#DejaVuSans-64" transform="translate(1363.037109 0)"/>
     <use xlink:href="#DejaVuSans-2d" transform="translate(1426.513672 0)"/>
     <use xlink:href="#DejaVuSans-4c" transform="translate(1462.597656 0)"/>
     <use xlink:href="#DejaVuSans-65" transform="translate(1516.560547 0)"/>
     <use xlink:href="#DejaVuSans-76" transform="translate(1578.083984 0)"/>
     <use xlink:href="#DejaVuSans-61" transform="translate(1637.263672 0)"/>
     <use xlink:href="#DejaVuSans-73" transform="translate(1698.542969 0)"/>
     <use xlink:href="#DejaVuSans-73" transform="translate(1750.642578 0)"/>
     <use xlink:href="#DejaVuSans-6f" transform="translate(1802.742188 0)"/>
     <use xlink:href="#DejaVuSans-72" transform="translate(1863.923828 0)"/>
     <use xlink:href="#DejaVuSans-20" transform="translate(1905.037109 0)"/>
     <use xlink:href="#DejaVuSans-61" transform="translate(1936.824219 0)"/>
     <use xlink:href="#DejaVuSans-3a" transform="translate(1998.103516 0)"/>
    </g>
   </g>
   <g id="legend_3">
    <g id="patch_36">
     <path d="M 338.105 475.715313 
L 424.744063 475.715313 
Q 426.744063 475.715313 426.744063 473.715313 
L 426.744063 401.324688 
Q 426.744063 399.324688 424.744063 399.324688 
L 338.105 399.324688 
Q 336.105 399.324688 336.105 401.324688 
L 336.105 473.715313 
Q 336.105 475.715313 338.105 475.715313 
z
" style="fill: #ffffff; opacity: 0.8; stroke: #cccccc; stroke-linejoin: miter"/>
    </g>
    <g id="text_14">
     <!-- Empresas -->
     <g transform="translate(356.927656 410.923125) scale(0.1 -0.1)">
      <use xlink:href="#DejaVuSans-45"/>
      <use xlink:href="#DejaVuSans-6d" transform="translate(63.183594 0)"/>
      <use xlink:href="#DejaVuSans-70" transform="translate(160.595703 0)"/>
      <use xlink:href="#DejaVuSans-72" transform="translate(224.072266 0)"/>
      <use xlink:href="#DejaVuSans-65" transform="translate(262.935547 0)"/>
      <use xlink:href="#DejaVuSans-73" transform="translate(324.458984 0)"/>
      <use xlink:href="#DejaVuSans-61" transform="translate(376.558594 0)"/>
      <use xlink:href="#DejaVuSans-73" transform="translate(437.837891 0)"/>
     </g>
    </g>
    <g id="patch_37">
     <path d="M 340.105 425.60125 
L 360.105 425.60125 
L 360.105 418.60125 
L 340.105 418.60125 
z
" style="fill: #9467bd"/>
    </g>
    <g id="text_15">
     <!-- ME: 19.6% -->
     <g transform="translate(368.105 425.60125) scale(0.1 -0.1)">
      <defs>
       <path id="DejaVuSans-36" d="M 2113 2584 
Q 1688 2584 1439 2293 
Q 1191 2003 1191 1497 
Q 1191 994 1439 701 
Q 1688 409 2113 409 
Q 2538 409 2786 701 
Q 3034 994 3034 1497 
Q 3034 2003 2786 2293 
Q 2538 2584 2113 2584 
z
M 3366 4563 
L 3366 3988 
Q 3128 4100 2886 4159 
Q 2644 4219 2406 4219 
Q 1781 4219 1451 3797 
Q 1122 3375 1075 2522 
Q 1259 2794 1537 2939 
Q 1816 3084 2150 3084 
Q 2853 3084 3261 2657 
Q 3669 2231 3669 1497 
Q 3669 778 3244 343 
Q 2819 -91 2113 -91 
Q 1303 -91 875 529 
Q 447 1150 447 2328 
Q 447 3434 972 4092 
Q 1497 4750 2381 4750 
Q 2619 4750 2861 4703 
Q 3103 4656 3366 4563 
z
" transform="scale(0.015625)"/>
      </defs>
      <use xlink:href="#DejaVuSans-4d"/>
      <use xlink:href="#DejaVuSans-45" transform="translate(86.279297 0)"/>
      <use xlink:href="#DejaVuSans-3a" transform="translate(149.462891 0)"/>
      <use xlink:href="#DejaVuSans-20" transform="translate(183.154297 0)"/>
      <use xlink:href="#DejaVuSans-31" transform="translate(214.941406 0)"/>
      <use xlink:href="#DejaVuSans-39" transform="translate(278.564453 0)"/>
      <use xlink:href="#DejaVuSans-2e" transform="translate(342.1875 0)"/>
      <use xlink:href="#DejaVuSans-36" transform="translate(373.974609 0)"/>
      <use xlink:href="#DejaVuSans-25" transform="translate(437.597656 0)"/>
     </g>
    </g>
    <g id="patch_38">
     <path d="M 340.105 440.279375 
L 360.105 440.279375 
L 360.105 433.279375 
L 340.105 433.279375 
z
" style="fill: #8c564b"/>
    </g>
    <g id="text_16">
     <!-- PE: 19.6% -->
     <g transform="translate(368.105 440.279375) scale(0.1 -0.1)">
      <use xlink:href="#DejaVuSans-50"/>
      <use xlink:href="#DejaVuSans-45" transform="translate(60.302734 0)"/>
      <use xlink:href="#DejaVuSans-3a" transform="translate(123.486328 0)"/>
      <use xlink:href="#DejaVuSans-20" transform="translate(157.177734 0)"/>
      <use xlink:href="#DejaVuSans-31" transform="translate(188.964844 0)"/>
      <use xlink:href="#DejaVuSans-39" transform="translate(252.587891 0)"/>
      <use xlink:href="#DejaVuSans-2e" transform="translate(316.210938 0)"/>
      <use xlink:href="#DejaVuSans-36" transform="translate(347.998047 0)"/>
      <use xlink:href="#DejaVuSans-25" transform="translate(411.621094 0)"/>
     </g>
    </g>
    <g id="patch_39">
     <path d="M 340.105 454.9575 
L 360.105 454.9575 
L 360.105 447.9575 
L 340.105 447.9575 
z
" style="fill: #e377c2"/>
    </g>
    <g id="text_17">
     <!-- PL: 41.1% -->
     <g transform="translate(368.105 454.9575) scale(0.1 -0.1)">
      <use xlink:href="#DejaVuSans-50"/>
      <use xlink:href="#DejaVuSans-4c" transform="translate(60.302734 0)"/>
      <use xlink:href="#DejaVuSans-3a" transform="translate(116.015625 0)"/>
      <use xlink:href="#DejaVuSans-20" transform="translate(149.707031 0)"/>
      <use xlink:href="#DejaVuSans-34" transform="translate(181.494141 0)"/>
      <use xlink:href="#DejaVuSans-31" transform="translate(245.117188 0)"/>
      <use xlink:href="#DejaVuSans-2e" transform="translate(308.740234 0)"/>
      <use xlink:href="#DejaVuSans-31" transform="translate(340.527344 0)"/>
      <use xlink:href="#DejaVuSans-25" transform="translate(404.150391 0)"/>
     </g>
    </g>
    <g id="patch_40">
     <path d="M 340.105 469.635625 
L 360.105 469.635625 
L 360.105 462.635625 
L 340.105 462.635625 
z
" style="fill: #7f7f7f"/>
    </g>
    <g id="text_18">
     <!-- MO: 19.6% -->
     <g transform="translate(368.105 469.635625) scale(0.1 -0.1)">
      <use xlink:href="#DejaVuSans-4d"/>
      <use xlink:href="#DejaVuSans-4f" transform="translate(86.279297 0)"/>
      <use xlink:href="#DejaVuSans-3a" transform="translate(163.240234 0)"/>
      <use xlink:href="#DejaVuSans-20" transform="translate(196.931641 0)"/>
      <use xlink:href="#DejaVuSans-31" transform="translate(228.71875 0)"/>
      <use xlink:href="#DejaVuSans-39" transform="translate(292.341797 0)"/>
      <use xlink:href="#DejaVuSans-2e" transform="translate(355.964844 0)"/>
      <use xlink:href="#DejaVuSans-36" transform="translate(387.751953 0)"/>
      <use xlink:href="#DejaVuSans-25" transform="translate(451.375 0)"/>
     </g>
    </g>
   </g>
  </g>
  <g id="axes_4">
   <g id="patch_41">
    <path d="M 597.597141 337.156364 
C 574.636635 337.156364 552.35712 345.035445 534.501348 359.469995 
C 516.645576 373.904545 504.272724 394.038328 499.461316 416.489056 
L 597.597141 437.520512 
z
" style="fill: #1f77b4"/>
   </g>
   <g id="patch_42">
    <path d="M 499.461315 416.489057 
C 494.649904 438.939783 497.68534 462.375697 508.057704 482.85981 
C 518.430068 503.343925 535.524081 519.661141 556.468111 529.07031 
L 597.597141 437.520512 
z
" style="fill: #ff7f0e"/>
   </g>
   <g id="patch_43">
    <path d="M 556.468111 529.07031 
C 577.412135 538.479479 600.963828 540.422464 623.166683 534.572871 
C 645.369537 528.723279 664.906519 515.428111 678.495639 496.920804 
L 597.597141 437.520512 
z
" style="fill: #2ca02c"/>
   </g>
   <g id="patch_44">
    <path d="M 678.495639 496.920804 
C 689.474756 481.968117 696.096252 464.260217 697.621478 445.772449 
C 699.146704 427.284682 695.516765 408.731046 687.136583 392.181228 
C 678.756402 375.63141 665.949618 361.724571 650.144858 352.012034 
C 634.340098 342.299498 616.14773 337.156364 597.597155 337.156364 
L 597.597141 437.520512 
z
" style="fill: #d62728"/>
   </g>
   <g id="patch_45">
    <path d="M 597.597141 337.156364 
C 574.636635 337.156364 552.35712 345.035445 534.501348 359.469995 
C 516.645576 373.904545 504.272724 394.038328 499.461316 416.489056 
L 597.597141 437.520512 
z
" style="fill: #9467bd"/>
   </g>
   <g id="patch_46">
    <path d="M 499.461315 416.489057 
C 494.649904 438.939783 497.68534 462.375697 508.057704 482.85981 
C 518.430068 503.343925 535.524081 519.661141 556.468111 529.07031 
L 597.597141 437.520512 
z
" style="fill: #8c564b"/>
   </g>
   <g id="patch_47">
    <path d="M 556.468111 529.07031 
C 577.412135 538.479479 600.963828 540.422464 623.166683 534.572871 
C 645.369537 528.723279 664.906519 515.428111 678.495639 496.920804 
L 597.597141 437.520512 
z
" style="fill: #e377c2"/>
   </g>
   <g id="patch_48">
    <path d="M 678.495639 496.920804 
C 689.474756 481.968117 696.096252 464.260217 697.621478 445.772449 
C 699.146704 427.284682 695.516765 408.731046 687.136583 392.181228 
C 678.756402 375.63141 665.949618 361.724571 650.144858 352.012034 
C 634.340098 342.299498 616.14773 337.156364 597.597155 337.156364 
L 597.597141 437.520512 
z
" style="fill: #7f7f7f"/>
   </g>
   <g id="matplotlib.axis_7"/>
   <g id="matplotlib.axis_8"/>
   <g id="text_19">
    <!-- Prob. cambio desde Mors a: -->
    <g transform="translate(514.505 321.12) scale(0.12 -0.12)">
     <use xlink:href="#DejaVuSans-50"/>
     <use xlink:href="#DejaVuSans-72" transform="translate(58.552734 0)"/>
     <use xlink:href="#DejaVuSans-6f" transform="translate(97.416016 0)"/>
     <use xlink:href="#DejaVuSans-62" transform="translate(158.597656 0)"/>
     <use xlink:href="#DejaVuSans-2e" transform="translate(222.074219 0)"/>
     <use xlink:href="#DejaVuSans-20" transform="translate(253.861328 0)"/>
     <use xlink:href="#DejaVuSans-63" transform="translate(285.648438 0)"/>
     <use xlink:href="#DejaVuSans-61" transform="translate(340.628906 0)"/>
     <use xlink:href="#DejaVuSans-6d" transform="translate(401.908203 0)"/>
     <use xlink:href="#DejaVuSans-62" transform="translate(499.320312 0)"/>
     <use xlink:href="#DejaVuSans-69" transform="translate(562.796875 0)"/>
     <use xlink:href="#DejaVuSans-6f" transform="translate(590.580078 0)"/>
     <use xlink:href="#DejaVuSans-20" transform="translate(651.761719 0)"/>
     <use xlink:href="#DejaVuSans-64" transform="translate(683.548828 0)"/>
     <use xlink:href="#DejaVuSans-65" transform="translate(747.025391 0)"/>
     <use xlink:href="#DejaVuSans-73" transform="translate(808.548828 0)"/>
     <use xlink:href="#DejaVuSans-64" transform="translate(860.648438 0)"/>
     <use xlink:href="#DejaVuSans-65" transform="translate(924.125 0)"/>
     <use xlink:href="#DejaVuSans-20" transform="translate(985.648438 0)"/>
     <use xlink:href="#DejaVuSans-4d" transform="translate(1017.435547 0)"/>
     <use xlink:href="#DejaVuSans-6f" transform="translate(1103.714844 0)"/>
     <use xlink:href="#DejaVuSans-72" transform="translate(1164.896484 0)"/>
     <use xlink:href="#DejaVuSans-73" transform="translate(1206.009766 0)"/>
     <use xlink:href="#DejaVuSans-20" transform="translate(1258.109375 0)"/>
     <use xlink:href="#DejaVuSans-61" transform="translate(1289.896484 0)"/>
     <use xlink:href="#DejaVuSans-3a" transform="translate(1351.175781 0)"/>
    </g>
   </g>
   <g id="legend_4">
    <g id="patch_49">
     <path d="M 764.75 475.715313 
L 851.389063 475.715313 
Q 853.389063 475.715313 853.389063 473.715313 
L 853.389063 401.324688 
Q 853.389063 399.324688 851.389063 399.324688 
L 764.75 399.324688 
Q 762.75 399.324688 762.75 401.324688 
L 762.75 473.715313 
Q 762.75 475.715313 764.75 475.715313 
z
" style="fill: #ffffff; opacity: 0.8; stroke: #cccccc; stroke-linejoin: miter"/>
    </g>
    <g id="text_20">
     <!-- Empresas -->
     <g transform="translate(783.572656 410.923125) scale(0.1 -0.1)">
      <use xlink:href="#DejaVuSans-45"/>
      <use xlink:href="#DejaVuSans-6d" transform="translate(63.183594 0)"/>
      <use xlink:href="#DejaVuSans-70" transform="translate(160.595703 0)"/>
      <use xlink:href="#DejaVuSans-72" transform="translate(224.072266 0)"/>
      <use xlink:href="#DejaVuSans-65" transform="translate(262.935547 0)"/>
      <use xlink:href="#DejaVuSans-73" transform="translate(324.458984 0)"/>
      <use xlink:href="#DejaVuSans-61" transform="translate(376.558594 0)"/>
      <use xlink:href="#DejaVuSans-73" transform="translate(437.837891 0)"/>
     </g>
    </g>
    <g id="patch_50">
     <path d="M 766.75 425.60125 
L 786.75 425.60125 
L 786.75 418.60125 
L 766.75 418.60125 
z
" style="fill: #9467bd"/>
    </g>
    <g id="text_21">
     <!-- ME: 21.6% -->
     <g transform="translate(794.75 425.60125) scale(0.1 -0.1)">
      <use xlink:href="#DejaVuSans-4d"/>
      <use xlink:href="#DejaVuSans-45" transform="translate(86.279297 0)"/>
      <use xlink:href="#DejaVuSans-3a" transform="translate(149.462891 0)"/>
      <use xlink:href="#DejaVuSans-20" transform="translate(183.154297 0)"/>
      <use xlink:href="#DejaVuSans-32" transform="translate(214.941406 0)"/>
      <use xlink:href="#DejaVuSans-31" transform="translate(278.564453 0)"/>
      <use xlink:href="#DejaVuSans-2e" transform="translate(342.1875 0)"/>
      <use xlink:href="#DejaVuSans-36" transform="translate(373.974609 0)"/>
      <use xlink:href="#DejaVuSans-25" transform="translate(437.597656 0)"/>
     </g>
    </g>
    <g id="patch_51">
     <path d="M 766.75 440.279375 
L 786.75 440.279375 
L 786.75 433.279375 
L 766.75 433.279375 
z
" style="fill: #8c564b"/>
    </g>
    <g id="text_22">
     <!-- PE: 21.6% -->
     <g transform="translate(794.75 440.279375) scale(0.1 -0.1)">
      <use xlink:href="#DejaVuSans-50"/>
      <use xlink:href="#DejaVuSans-45" transform="translate(60.302734 0)"/>
      <use xlink:href="#DejaVuSans-3a" transform="translate(123.486328 0)"/>
      <use xlink:href="#DejaVuSans-20" transform="translate(157.177734 0)"/>
      <use xlink:href="#DejaVuSans-32" transform="translate(188.964844 0)"/>
      <use xlink:href="#DejaVuSans-31" transform="translate(252.587891 0)"/>
      <use xlink:href="#DejaVuSans-2e" transform="translate(316.210938 0)"/>
      <use xlink:href="#DejaVuSans-36" transform="translate(347.998047 0)"/>
      <use xlink:href="#DejaVuSans-25" transform="translate(411.621094 0)"/>
     </g>
    </g>
    <g id="patch_52">
     <path d="M 766.75 454.9575 
L 786.75 454.9575 
L 786.75 447.9575 
L 766.75 447.9575 
z
" style="fill: #e377c2"/>
    </g>
    <g id="text_23">
     <!-- PL: 21.6% -->
     <g transform="translate(794.75 454.9575) scale(0.1 -0.1)">
      <use xlink:href="#DejaVuSans-50"/>
      <use xlink:href="#DejaVuSans-4c" transform="translate(60.302734 0)"/>
      <use xlink:href="#DejaVuSans-3a" transform="translate(116.015625 0)"/>
      <use xlink:href="#DejaVuSans-20" transform="translate(149.707031 0)"/>
      <use xlink:href="#DejaVuSans-32" transform="translate(181.494141 0)"/>
      <use xlink:href="#DejaVuSans-31" transform="translate(245.117188 0)"/>
      <use xlink:href="#DejaVuSans-2e" transform="translate(308.740234 0)"/>
      <use xlink:href="#DejaVuSans-36" transform="translate(340.527344 0)"/>
      <use xlink:href="#DejaVuSans-25" transform="translate(404.150391 0)"/>
     </g>
    </g>
    <g id="patch_53">
     <path d="M 766.75 469.635625 
L 786.75 469.635625 
L 786.75 462.635625 
L 766.75 462.635625 
z
" style="fill: #7f7f7f"/>
    </g>
    <g id="text_24">
     <!-- MO: 35.1% -->
     <g transform="translate(794.75 469.635625) scale(0.1 -0.1)">
      <defs>
       <path id="DejaVuSans-33" d="M 2597 2516 
Q 3050 2419 3304 2112 
Q 3559 1806 3559 1356 
Q 3559 666 3084 287 
Q 2609 -91 1734 -91 
Q 1441 -91 1130 -33 
Q 819 25 488 141 
L 488 750 
Q 750 597 1062 519 
Q 1375 441 1716 441 
Q 2309 441 2620 675 
Q 2931 909 2931 1356 
Q 2931 1769 2642 2001 
Q 2353 2234 1838 2234 
L 1294 2234 
L 1294 2753 
L 1863 2753 
Q 2328 2753 2575 2939 
Q 2822 3125 2822 3475 
Q 2822 3834 2567 4026 
Q 2313 4219 1838 4219 
Q 1578 4219 1281 4162 
Q 984 4106 628 3988 
L 628 4550 
Q 988 4650 1302 4700 
Q 1616 4750 1894 4750 
Q 2613 4750 3031 4423 
Q 3450 4097 3450 3541 
Q 3450 3153 3228 2886 
Q 3006 2619 2597 2516 
z
" transform="scale(0.015625)"/>
       <path id="DejaVuSans-35" d="M 691 4666 
L 3169 4666 
L 3169 4134 
L 1269 4134 
L 1269 2991 
Q 1406 3038 1543 3061 
Q 1681 3084 1819 3084 
Q 2600 3084 3056 2656 
Q 3513 2228 3513 1497 
Q 3513 744 3044 326 
Q 2575 -91 1722 -91 
Q 1428 -91 1123 -41 
Q 819 9 494 109 
L 494 744 
Q 775 591 1075 516 
Q 1375 441 1709 441 
Q 2250 441 2565 725 
Q 2881 1009 2881 1497 
Q 2881 1984 2565 2268 
Q 2250 2553 1709 2553 
Q 1456 2553 1204 2497 
Q 953 2441 691 2322 
L 691 4666 
z
" transform="scale(0.015625)"/>
      </defs>
      <use xlink:href="#DejaVuSans-4d"/>
      <use xlink:href="#DejaVuSans-4f" transform="translate(86.279297 0)"/>
      <use xlink:href="#DejaVuSans-3a" transform="translate(163.240234 0)"/>
      <use xlink:href="#DejaVuSans-20" transform="translate(196.931641 0)"/>
      <use xlink:href="#DejaVuSans-33" transform="translate(228.71875 0)"/>
      <use xlink:href="#DejaVuSans-35" transform="translate(292.341797 0)"/>
      <use xlink:href="#DejaVuSans-2e" transform="translate(355.964844 0)"/>
      <use xlink:href="#DejaVuSans-31" transform="translate(387.751953 0)"/>
      <use xlink:href="#DejaVuSans-25" transform="translate(451.375 0)"/>
     </g>
    </g>
   </g>
  </g>
  <g id="text_25">
   <!-- Probabilidad de Cambio (Matriz de Markov Final) -->
   <g transform="translate(286.793437 20.638125) scale(0.12 -0.12)">
    <defs>
     <path id="DejaVuSans-6c" d="M 603 4863 
L 1178 4863 
L 1178 0 
L 603 0 
L 603 4863 
z
" transform="scale(0.015625)"/>
     <path id="DejaVuSans-43" d="M 4122 4306 
L 4122 3641 
Q 3803 3938 3442 4084 
Q 3081 4231 2675 4231 
Q 1875 4231 1450 3742 
Q 1025 3253 1025 2328 
Q 1025 1406 1450 917 
Q 1875 428 2675 428 
Q 3081 428 3442 575 
Q 3803 722 4122 1019 
L 4122 359 
Q 3791 134 3420 21 
Q 3050 -91 2638 -91 
Q 1578 -91 968 557 
Q 359 1206 359 2328 
Q 359 3453 968 4101 
Q 1578 4750 2638 4750 
Q 3056 4750 3426 4639 
Q 3797 4528 4122 4306 
z
" transform="scale(0.015625)"/>
     <path id="DejaVuSans-28" d="M 1984 4856 
Q 1566 4138 1362 3434 
Q 1159 2731 1159 2009 
Q 1159 1288 1364 580 
Q 1569 -128 1984 -844 
L 1484 -844 
Q 1016 -109 783 600 
Q 550 1309 550 2009 
Q 550 2706 781 3412 
Q 1013 4119 1484 4856 
L 1984 4856 
z
" transform="scale(0.015625)"/>
     <path id="DejaVuSans-7a" d="M 353 3500 
L 3084 3500 
L 3084 2975 
L 922 459 
L 3084 459 
L 3084 0 
L 275 0 
L 275 525 
L 2438 3041 
L 353 3041 
L 353 3500 
z
" transform="scale(0.015625)"/>
     <path id="DejaVuSans-6b" d="M 581 4863 
L 1159 4863 
L 1159 1991 
L 2875 3500 
L 3609 3500 
L 1753 1863 
L 3688 0 
L 2938 0 
L 1159 1709 
L 1159 0 
L 581 0 
L 581 4863 
z
" transform="scale(0.015625)"/>
     <path id="DejaVuSans-46" d="M 628 4666 
L 3309 4666 
L 3309 4134 
L 1259 4134 
L 1259 2759 
L 3109 2759 
L 3109 2228 
L 1259 2228 
L 1259 0 
L 628 0 
L 628 4666 
z
" transform="scale(0.015625)"/>
     <path id="DejaVuSans-29" d="M 513 4856 
L 1013 4856 
Q 1481 4119 1714 3412 
Q 1947 2706 1947 2009 
Q 1947 1309 1714 600 
Q 1481 -109 1013 -844 
L 513 -844 
Q 928 -128 1133 580 
Q 1338 1288 1338 2009 
Q 1338 2731 1133 3434 
Q 928 4138 513 4856 
z
" transform="scale(0.015625)"/>
    </defs>
    <use xlink:href="#DejaVuSans-50"/>
    <use xlink:href="#DejaVuSans-72" transform="translate(58.552734 0)"/>
    <use xlink:href="#DejaVuSans-6f" transform="translate(97.416016 0)"/>
    <use xlink:href="#DejaVuSans-62" transform="translate(158.597656 0)"/>
    <use xlink:href="#DejaVuSans-61" transform="translate(222.074219 0)"/>
    <use xlink:href="#DejaVuSans-62" transform="translate(283.353516 0)"/>
    <use xlink:href="#DejaVuSans-69" transform="translate(346.830078 0)"/>
    <use xlink:href="#DejaVuSans-6c" transform="translate(374.613281 0)"/>
    <use xlink:href="#DejaVuSans-69" transform="translate(402.396484 0)"/>
    <use xlink:href="#DejaVuSans-64" transform="translate(430.179688 0)"/>
    <use xlink:href="#DejaVuSans-61" transform="translate(493.65625 0)"/>
    <use xlink:href="#DejaVuSans-64" transform="translate(554.935547 0)"/>
    <use xlink:href="#DejaVuSans-20" transform="translate(618.412109 0)"/>
    <use xlink:href="#DejaVuSans-64" transform="translate(650.199219 0)"/>
    <use xlink:href="#DejaVuSans-65" transform="translate(713.675781 0)"/>
    <use xlink:href="#DejaVuSans-20" transform="translate(775.199219 0)"/>
    <use xlink:href="#DejaVuSans-43" transform="translate(806.986328 0)"/>
    <use xlink:href="#DejaVuSans-61" transform="translate(876.810547 0)"/>
    <use xlink:href="#DejaVuSans-6d" transform="translate(938.089844 0)"/>
    <use xlink:href="#DejaVuSans-62" transform="translate(1035.501953 0)"/>
    <use xlink:href="#DejaVuSans-69" transform="translate(1098.978516 0)"/>
    <use xlink:href="#DejaVuSans-6f" transform="translate(1126.761719 0)"/>
    <use xlink:href="#DejaVuSans-20" transform="translate(1187.943359 0)"/>
    <use xlink:href="#DejaVuSans-28" transform="translate(1219.730469 0)"/>
    <use xlink:href="#DejaVuSans-4d" transform="translate(1258.744141 0)"/>
    <use xlink:href="#DejaVuSans-61" transform="translate(1345.023438 0)"/>
    <use xlink:href="#DejaVuSans-74" transform="translate(1406.302734 0)"/>
    <use xlink:href="#DejaVuSans-72" transform="translate(1445.511719 0)"/>
    <use xlink:href="#DejaVuSans-69" transform="translate(1486.625 0)"/>
    <use xlink:href="#DejaVuSans-7a" transform="translate(1514.408203 0)"/>
    <use xlink:href="#DejaVuSans-20" transform="translate(1566.898438 0)"/>
    <use xlink:href="#DejaVuSans-64" transform="translate(1598.685547 0)"/>
    <use xlink:href="#DejaVuSans-65" transform="translate(1662.162109 0)"/>
    <use xlink:href="#DejaVuSans-20" transform="translate(1723.685547 0)"/>
    <use xlink:href="#DejaVuSans-4d" transform="translate(1755.472656 0)"/>
    <use xlink:href="#DejaVuSans-61" transform="translate(1841.751953 0)"/>
    <use xlink:href="#DejaVuSans-72" transform="translate(1903.03125 0)"/>
    <use xlink:href="#DejaVuSans-6b" transform="translate(1944.144531 0)"/>
    <use xlink:href="#DejaVuSans-6f" transform="translate(1998.429688 0)"/>
    <use xlink:href="#DejaVuSans-76" transform="translate(2059.611328 0)"/>
    <use xlink:href="#DejaVuSans-20" transform="translate(2118.791016 0)"/>
    <use xlink:href="#DejaVuSans-46" transform="translate(2150.578125 0)"/>
    <use xlink:href="#DejaVuSans-69" transform="translate(2200.847656 0)"/>
    <use xlink:href="#DejaVuSans-6e" transform="translate(2228.630859 0)"/>
    <use xlink:href="#DejaVuSans-61" transform="translate(2292.009766 0)"/>
    <use xlink:href="#DejaVuSans-6c" transform="translate(2353.289062 0)"/>
    <use xlink:href="#DejaVuSans-29" transform="translate(2381.072266 0)"/>
   </g>
  </g>
 </g>
</svg>
